<svg xmlns="http://www.w3.org/2000/svg" viewBox="0 0 205.44 188.25"><defs><style>.cls-1{fill:#e4f2f6;}.cls-2{fill:#6c9baa;}.cls-3{fill:#ff9669;}.cls-4{fill:#031a61;}.cls-5{fill:#a5c8cd;}.cls-6{fill:#87afb9;}.cls-7{fill:#50374b;}.cls-8{fill:#c8e6eb;}.cls-9{fill:#a5a0aa;}.cls-10{fill:#695a6e;}.cls-11{fill:#b6ebc4;}.cls-12{fill:#8cc3a1;}.cls-13{fill:#96cda3;}.cls-14{fill:#7aaf94;}.cls-15{fill:#0153c7;}.cls-16{fill:#013e95;}.cls-17{fill:#f58251;}.cls-18{fill:#1f7bfe;}.cls-19{fill:#f9f8f7;}.cls-20{fill:#523528;}.cls-21{fill:#ff640a;}.cls-22{fill:#c96e35;}.cls-23{fill:#042382;}.cls-24{fill:#63a3fe;}.cls-25,.cls-31,.cls-32,.cls-33{fill:none;stroke-miterlimit:10;}.cls-25{stroke:#50374b;stroke-linecap:round;stroke-width:3.41px;}.cls-26{fill:#fff;}.cls-27{fill:#ff8291;}.cls-28{fill:#41b4e6;}.cls-29{fill:#faf58c;}.cls-30{fill:#ff8c46;}.cls-31{stroke:#688cfa;stroke-width:0.42px;}.cls-32{stroke:#87afb9;}.cls-32,.cls-33{stroke-width:1.1px;}.cls-33{stroke:#6c9baa;}.cls-34{fill:#b4d7dc;}</style></defs><title>자산 3</title><g id="레이어_2" data-name="레이어 2"><g id="OBJECTS"><circle class="cls-1" cx="83.69" cy="83.69" r="83.69" transform="translate(-34.67 83.69) rotate(-45)"/><path class="cls-2" d="M115.43,103H101.58a2.26,2.26,0,0,1,2.26-2.27h11.59Z"/><path class="cls-3" d="M120.43,99.65,113.91,99l-6.67-.55s-7.38,1.79-6.51,2.88c.36.45,7.57,0,7.57,0l6.3,1.66,6.38,0Z"/><path class="cls-4" d="M164.46,54.48c-3,5.25-2.51,10.92-5.6,10.92s-5.6-4.88-5.6-10.92,2.51-10.92,5.6-10.92S167.92,48.4,164.46,54.48Z"/><rect class="cls-5" x="27.08" y="138.69" width="56.23" height="45.32"/><rect class="cls-6" x="11.44" y="138.69" width="56.23" height="45.32"/><polygon class="cls-7" points="186.05 134.17 152.96 134.17 152.96 74.51 198.64 74.61 186.05 134.17"/><path class="cls-8" d="M187,184.23c0,1.5-18.53,2.71-41.38,2.71s-41.39-1.21-41.39-2.71,18.53-2.71,41.39-2.71S187,182.73,187,184.23Z"/><rect class="cls-9" x="159.51" y="135.91" width="3.79" height="42.65"/><path class="cls-10" d="M180,183.92h-3.79a3.47,3.47,0,0,0-3.47-3.46H150.44a3.46,3.46,0,0,0-3.46,3.46h-3.79a7.26,7.26,0,0,1,7.25-7.25H172.7A7.26,7.26,0,0,1,180,183.92Z"/><path class="cls-11" d="M32.3,58.18a14.5,14.5,0,0,1-4.67-5.86c-2.36-5.19-6.2-8.42-9.81-7.73C13,45.51,10.39,53.05,12,61.42S26.29,85.11,28.15,84.87c1.63-.22,8.56-16.19,7.71-20.63A9.69,9.69,0,0,0,32.3,58.18Z"/><path class="cls-12" d="M22.71,54.51A58.47,58.47,0,0,1,26,63.79a77.43,77.43,0,0,1,1.92,9.68c.45,3.26.73,6.55.87,9.85s.15,6.56.23,9.84H27.24c.06-3.27.19-6.56.21-9.82s-.11-6.52-.41-9.77a77.5,77.5,0,0,0-1.48-9.68A58.58,58.58,0,0,0,22.71,54.51Z"/><path class="cls-13" d="M42.38,69.15c.87-6.89-.56-12.75-3.19-13.08-2.35-.3-4.85,3.87-6,9.64a4.16,4.16,0,0,1-1.58,2.56c-1.62,1.2-2.47,4-2,7,.64,3.76,4.8,7.56,4.8,7.56S41.52,76,42.38,69.15Z"/><path class="cls-14" d="M38.22,59.92c-1.1,5-2,10.13-2.67,15.24A74.71,74.71,0,0,0,35,90.53l-.9.07a75.74,75.74,0,0,1,1.06-15.5C35.9,70,37,64.93,38.22,59.92Z"/><path class="cls-6" d="M34.91,102.7H23.66a2.28,2.28,0,0,1-2.25-1.9L18.5,83.93H40.07l-2.9,16.87A2.29,2.29,0,0,1,34.91,102.7Z"/><rect class="cls-5" x="17.34" y="80.9" width="23.89" height="5.99" rx="1.37"/><path class="cls-15" d="M139.29,65.4l3.53,1.15L137.25,87c-.61,2.3-6.16,12.63-6.16,12.63a8.24,8.24,0,0,1-3.87-3.41C123.12,90.06,139.29,65.4,139.29,65.4Z"/><path class="cls-15" d="M130.08,86c2.13-1.86,9.56-8.36,15.66-13.49,7.19-6,15.47-6.65,13.79,2.41,0,0-1.17,9.86-17.89,18.56-3.71,1.93-8,4.74-10.55,6.16C131.09,99.65,130.1,88.76,130.08,86Z"/><path class="cls-16" d="M136.58,96.05c.85-2.71,4.11-10.12,5.25-12.72a20.65,20.65,0,0,1,4.46-6.08V90.8c-1.4.9-2.94,1.8-4.65,2.69s-3.45,1.82-5.11,2.71A.88.88,0,0,1,136.58,96.05Z"/><path class="cls-7" d="M160.33,178.59l.86,2.93a2.54,2.54,0,0,1-.11,1.74c-.77,1.75-3,5.4-3.83,5-1.13-.63.86-5.83.86-5.83l-.33-1.75Z"/><path class="cls-17" d="M150.53,114.84l10.19,65.08c-.8.78-1.54.68-2.94.72l-25.7-61.18Z"/><path class="cls-18" d="M155.4,67.72c5.14-.74,12.35-2.3,17.6,3.78,3.44,4,2.79,12.59,4.13,21.49,2.42,16.09-1.46,21.85-1.46,21.85s-19.28,1.86-24.08-3c-.58-3.1-13.81-16-8.55-30.45C145.64,74.27,150.52,68.43,155.4,67.72Z"/><path class="cls-17" d="M153.91,62h5.25a46.86,46.86,0,0,0,1,5.47,3.09,3.09,0,0,1-.59,2.67c-1.74,2.16-5.42,5.82-7.31,1a3.14,3.14,0,0,1,0-2.22A29.66,29.66,0,0,0,153.91,62Z"/><path class="cls-3" d="M160.83,56.7a11.91,11.91,0,0,1-2.1,7c-.87,1.15-2.3,3.12-5.06,3-1.71-.05-3-1.49-4-3-3-4.75-2.76-14-2.76-14s9.73-4,13,1.5C160.68,52.47,160.83,54.62,160.83,56.7Z"/><path class="cls-19" d="M154.94,62a1.68,1.68,0,1,1-3.35,0Z"/><path class="cls-20" d="M155.47,57.3c0,.46.19.84.43.84s.44-.38.44-.84-.2-.85-.44-.85S155.47,56.83,155.47,57.3Z"/><ellipse class="cls-20" cx="150.13" cy="57.3" rx="0.44" ry="0.85"/><path class="cls-21" d="M153,56.66l-.73,3a.77.77,0,0,0,.87.93h0a.58.58,0,0,0,.56-.7Z"/><path class="cls-22" d="M154.89,55.1a2.62,2.62,0,0,1,1.58-.31,2.12,2.12,0,0,1,1.45.71,5.44,5.44,0,0,1-1.54.07A3.69,3.69,0,0,1,154.89,55.1Z"/><path class="cls-22" d="M151.48,55.3a3.22,3.22,0,0,1-1.25.34,4.48,4.48,0,0,1-1.27-.11,1.5,1.5,0,0,1,1.22-.67A1.77,1.77,0,0,1,151.48,55.3Z"/><path class="cls-23" d="M160.05,49.19s-5.63,5.23-11.71,5-8-5.31-7.6-7.77,1.47-10.43,11.72-4C152.46,42.37,167,41,160.05,49.19Z"/><path class="cls-3" d="M159.83,57.1c-.42,1.62-.13,3.1.66,3.3s1.77-.93,2.2-2.55.13-3.1-.66-3.31S160.26,55.48,159.83,57.1Z"/><path class="cls-7" d="M116.79,163.33l-1.15,2.82a2.62,2.62,0,0,1-1.18,1.3c-1.68.88-5.4,2.62-6.09,1s4.31-3.57,4.31-3.57l1.67-2.19Z"/><path class="cls-3" d="M178.77,127c2.07-6.34-2.37-13-9-14.07-10.4-1.75-28.28-4-35.08-.29-4.07,2.23-22.06,52.31-22.06,52.31.11,1.83,3.72-.65,3.72-.65l23.31-36.55s28,10.12,35.14,4.72A11,11,0,0,0,178.77,127Z"/><path class="cls-18" d="M140.21,111c7.86-1.29,21-5.41,29.7-4.42,9.94,1.14,13.16,18.65,5.68,25.28-.23.21-.48.41-.74.61-6.56,5-27.39-1.08-31.14-2.39Z"/><path class="cls-24" d="M167.3,72.16A6.63,6.63,0,0,1,172.19,79c0,3.44-13.76,22.3-23.84,25.91-8.82,3.15-28.39-.52-29.59-2-1.06-1.28.39-5.81.39-5.81,4.12.77,24.73-2.5,24.73-2.5S151.58,86,156,79.83C161.18,72.62,162.69,71,167.3,72.16Z"/><path class="cls-10" d="M179.32,139.7h-39a3.79,3.79,0,0,1,0-7.58h39a2.58,2.58,0,0,0,2.52-2l12.25-52.68a3.79,3.79,0,1,1,7.38,1.72l-12.25,52.68A10.12,10.12,0,0,1,179.32,139.7Z"/><polygon class="cls-2" points="86.78 102.96 72.67 102.96 74.86 88.84 88.98 88.84 86.78 102.96"/><path class="cls-25" d="M154.15,135.71l2.22-17.57a8.6,8.6,0,0,1,8.53-7.53h22.91"/><polygon class="cls-5" points="9.41 184.01 27.63 107.65 24.2 106.69 5.75 184.01 9.41 184.01"/><polygon class="cls-5" points="128.28 184.01 109.84 106.69 106.4 107.65 124.62 184.01 128.28 184.01"/><path class="cls-26" d="M107.91,86.78a2.8,2.8,0,0,1-2.63,3.71H57a2.78,2.78,0,0,1-2.63-1.86L42.87,55.94a2.78,2.78,0,0,1,2.62-3.71H93.74a2.79,2.79,0,0,1,2.63,1.86Z"/><polygon class="cls-27" points="92.25 62.42 91.28 59.66 51.99 59.66 52.96 62.42 92.25 62.42"/><polygon class="cls-28" points="93.95 67.23 92.66 63.58 53.37 63.58 54.66 67.23 93.95 67.23"/><polygon class="cls-29" points="94.83 69.72 94.36 68.39 55.07 68.39 55.54 69.72 94.83 69.72"/><polygon class="cls-30" points="55.95 70.88 60.26 83.1 76.14 83.1 71.83 70.88 55.95 70.88"/><polygon class="cls-28" points="73.02 70.88 77.33 83.1 99.12 83.1 94.8 70.88 73.02 70.88"/><path class="cls-6" d="M93.26,55.7l11,31.32H57.51l-11-31.32h46.8m.48-3.47H45.49a2.78,2.78,0,0,0-2.62,3.71L54.4,88.63A2.78,2.78,0,0,0,57,90.49h48.25a2.8,2.8,0,0,0,2.63-3.71L96.37,54.09a2.79,2.79,0,0,0-2.63-1.86Z"/><path class="cls-6" d="M94,102.92l-21.28,0,.51-3.31h17.5A3.26,3.26,0,0,1,94,102.92Z"/><path class="cls-23" d="M204.15,71.92a8.87,8.87,0,0,1-1.61-5.49,17.74,17.74,0,0,0-1.62-8.37,14.45,14.45,0,0,0-8.53-7.51,14.66,14.66,0,0,1-8.16-8.07,7.62,7.62,0,0,0-3.32-3.72c-7.51-4.21-11.62-1.53-13.25.13A57.73,57.73,0,0,1,163.08,43l-3.22,2.63,3.44,2.76h0a4,4,0,0,1,5.11,3.2c3.68,22.67,10.51,37,31.17,32.05A7.67,7.67,0,0,0,204.15,71.92Z"/><path class="cls-31" d="M149.24,58.85a2.22,2.22,0,0,1,3.12,0"/><circle class="cls-31" cx="147.26" cy="58.79" r="2.65"/><path class="cls-31" d="M157,58.75a2.65,2.65,0,1,1-2.66-2.65A2.65,2.65,0,0,1,157,58.75Z"/><path class="cls-31" d="M157,58.75l3.33-3.15a1.61,1.61,0,0,1,1.12-.45h0a1.64,1.64,0,0,1,1.53,1l.21.49"/><path class="cls-3" d="M140.07,65.66l1-1.95a8.29,8.29,0,0,1,1.62-4.81l1.48-1.64c.28-.26.94-1,1.29-.78s.14,1.65.06,2l-.14.71-.27,2.45a10.73,10.73,0,0,1-1.62,2.7l-1.08,2.07Z"/><rect class="cls-26" x="6.12" y="102.92" width="128.33" height="10.4" rx="2.14"/><path class="cls-32" d="M76.14,101.3h-68a4.94,4.94,0,0,0-4.94,4.94v38.69a4.94,4.94,0,0,0,4.94,4.94h4.5"/><line class="cls-33" x1="16.69" y1="171.64" x2="28.75" y2="171.64"/><line class="cls-33" x1="16.69" y1="174.2" x2="28.75" y2="174.2"/><line class="cls-33" x1="16.69" y1="176.76" x2="28.75" y2="176.76"/><line class="cls-33" x1="16.69" y1="179.33" x2="28.75" y2="179.33"/><rect class="cls-6" x="70.29" y="141.68" width="10.53" height="2.08"/><path class="cls-6" d="M80.82,172.78a1.14,1.14,0,1,1-1.14-1.14A1.14,1.14,0,0,1,80.82,172.78Z"/><circle class="cls-6" cx="79.68" cy="176.07" r="0.72"/><rect class="cls-34" x="70.29" y="147.74" width="10.53" height="18.77"/></g></g></svg>